<?xml version="1.0" encoding="UTF-8" standalone="no"?>
<!-- Created with Inkscape (http://www.inkscape.org/) -->

<svg
   width="768"
   height="576"
   viewBox="0 0 192 144"
   version="1.1"
   id="svg1"
   inkscape:version="1.3.2 (091e20ef0f, 2023-11-25)"
   sodipodi:docname="redmond_2007.svg"
   xmlns:inkscape="http://www.inkscape.org/namespaces/inkscape"
   xmlns:sodipodi="http://sodipodi.sourceforge.net/DTD/sodipodi-0.dtd"
   xmlns="http://www.w3.org/2000/svg"
   xmlns:svg="http://www.w3.org/2000/svg">
  <sodipodi:namedview
     id="namedview1"
     pagecolor="#ffffff"
     bordercolor="#000000"
     borderopacity="0.25"
     inkscape:showpageshadow="2"
     inkscape:pageopacity="0.0"
     inkscape:pagecheckerboard="0"
     inkscape:deskcolor="#9e9e9e"
     inkscape:document-units="mm"
     showguides="false"
     inkscape:zoom="1.2554788"
     inkscape:cx="327.7634"
     inkscape:cy="319.79831"
     inkscape:window-width="1920"
     inkscape:window-height="1003"
     inkscape:window-x="0"
     inkscape:window-y="0"
     inkscape:window-maximized="1"
     inkscape:current-layer="layer1"
     showgrid="false" />
  <defs
     id="defs1">
    <inkscape:path-effect
       effect="fillet_chamfer"
       id="path-effect5"
       is_visible="true"
       lpeversion="1"
       nodesatellites_param="F,0,0,1,0,1.7638889,0,1 @ F,0,0,1,0,1.7638889,0,1 @ F,0,0,1,0,1.7638889,0,1 @ F,0,0,1,0,1.7638889,0,1"
       radius="5"
       unit="pt"
       method="auto"
       mode="F"
       chamfer_steps="1"
       flexible="false"
       use_knot_distance="true"
       apply_no_radius="true"
       apply_with_radius="true"
       only_selected="false"
       hide_knots="false" />
    <inkscape:path-effect
       effect="fillet_chamfer"
       id="path-effect4"
       is_visible="true"
       lpeversion="1"
       nodesatellites_param="F,0,0,1,0,1.7638889,0,1 @ F,0,0,1,0,1.7638889,0,1 @ F,0,0,1,0,1.7638889,0,1 @ F,0,0,1,0,1.7638889,0,1"
       radius="5"
       unit="pt"
       method="auto"
       mode="F"
       chamfer_steps="1"
       flexible="false"
       use_knot_distance="true"
       apply_no_radius="true"
       apply_with_radius="true"
       only_selected="false"
       hide_knots="false" />
    <inkscape:path-effect
       effect="fillet_chamfer"
       id="path-effect3"
       is_visible="true"
       lpeversion="1"
       nodesatellites_param="C,1,0,1,0,0,0,1 @ C,1,0,1,0,0,0,1 @ C,1,0,1,0,0,0,1 @ C,1,0,1,0,0,0,1"
       radius="25"
       unit="px"
       method="auto"
       mode="F"
       chamfer_steps="1"
       flexible="true"
       use_knot_distance="true"
       apply_no_radius="true"
       apply_with_radius="true"
       only_selected="false"
       hide_knots="false" />
    <inkscape:path-effect
       effect="fillet_chamfer"
       id="path-effect2"
       is_visible="true"
       lpeversion="1"
       nodesatellites_param="F,0,0,1,0,0,0,1 @ F,0,0,1,0,0,0,1 @ IF,0,0,1,0,0,0,1 @ F,0,0,1,0,0,0,1"
       radius="0"
       unit="px"
       method="auto"
       mode="F"
       chamfer_steps="1"
       flexible="false"
       use_knot_distance="true"
       apply_no_radius="true"
       apply_with_radius="true"
       only_selected="false"
       hide_knots="false" />
    <inkscape:path-effect
       effect="fillet_chamfer"
       id="path-effect5-3"
       is_visible="true"
       lpeversion="1"
       nodesatellites_param="F,0,0,1,0,1.7638889,0,1 @ F,0,0,1,0,1.7638889,0,1 @ F,0,0,1,0,1.7638889,0,1 @ F,0,0,1,0,1.7638889,0,1"
       radius="5"
       unit="pt"
       method="auto"
       mode="F"
       chamfer_steps="1"
       flexible="false"
       use_knot_distance="true"
       apply_no_radius="true"
       apply_with_radius="true"
       only_selected="false"
       hide_knots="false" />
    <inkscape:path-effect
       effect="fillet_chamfer"
       id="path-effect5-3-6"
       is_visible="true"
       lpeversion="1"
       nodesatellites_param="F,0,0,1,0,1.7638889,0,1 @ F,0,0,1,0,1.7638889,0,1 @ F,0,0,1,0,1.7638889,0,1 @ F,0,0,1,0,1.7638889,0,1"
       radius="5"
       unit="pt"
       method="auto"
       mode="F"
       chamfer_steps="1"
       flexible="false"
       use_knot_distance="true"
       apply_no_radius="true"
       apply_with_radius="true"
       only_selected="false"
       hide_knots="false" />
    <inkscape:path-effect
       effect="fillet_chamfer"
       id="path-effect5-3-9"
       is_visible="true"
       lpeversion="1"
       nodesatellites_param="F,0,0,1,0,1.7638889,0,1 @ F,0,0,1,0,1.7638889,0,1 @ F,0,0,1,0,1.7638889,0,1 @ F,0,0,1,0,1.7638889,0,1"
       radius="5"
       unit="pt"
       method="auto"
       mode="F"
       chamfer_steps="1"
       flexible="false"
       use_knot_distance="true"
       apply_no_radius="true"
       apply_with_radius="true"
       only_selected="false"
       hide_knots="false" />
    <inkscape:path-effect
       effect="fillet_chamfer"
       id="path-effect5-3-6-7"
       is_visible="true"
       lpeversion="1"
       nodesatellites_param="F,0,0,1,0,1.7638889,0,1 @ F,0,0,1,0,1.7638889,0,1 @ F,0,0,1,0,1.7638889,0,1 @ F,0,0,1,0,1.7638889,0,1"
       radius="5"
       unit="pt"
       method="auto"
       mode="F"
       chamfer_steps="1"
       flexible="false"
       use_knot_distance="true"
       apply_no_radius="true"
       apply_with_radius="true"
       only_selected="false"
       hide_knots="false" />
    <inkscape:path-effect
       effect="fillet_chamfer"
       id="path-effect5-3-3"
       is_visible="true"
       lpeversion="1"
       nodesatellites_param="F,0,0,1,0,1.7638889,0,1 @ F,0,0,1,0,1.7638889,0,1 @ F,0,0,1,0,1.7638889,0,1 @ F,0,0,1,0,1.7638889,0,1"
       radius="5"
       unit="pt"
       method="auto"
       mode="F"
       chamfer_steps="1"
       flexible="false"
       use_knot_distance="true"
       apply_no_radius="true"
       apply_with_radius="true"
       only_selected="false"
       hide_knots="false" />
    <inkscape:path-effect
       effect="fillet_chamfer"
       id="path-effect5-3-6-1"
       is_visible="true"
       lpeversion="1"
       nodesatellites_param="F,0,0,1,0,1.7638889,0,1 @ F,0,0,1,0,1.7638889,0,1 @ F,0,0,1,0,1.7638889,0,1 @ F,0,0,1,0,1.7638889,0,1"
       radius="5"
       unit="pt"
       method="auto"
       mode="F"
       chamfer_steps="1"
       flexible="false"
       use_knot_distance="true"
       apply_no_radius="true"
       apply_with_radius="true"
       only_selected="false"
       hide_knots="false" />
    <inkscape:path-effect
       effect="fillet_chamfer"
       id="path-effect5-3-9-9"
       is_visible="true"
       lpeversion="1"
       nodesatellites_param="F,0,0,1,0,1.7638889,0,1 @ F,0,0,1,0,1.7638889,0,1 @ F,0,0,1,0,1.7638889,0,1 @ F,0,0,1,0,1.7638889,0,1"
       radius="5"
       unit="pt"
       method="auto"
       mode="F"
       chamfer_steps="1"
       flexible="false"
       use_knot_distance="true"
       apply_no_radius="true"
       apply_with_radius="true"
       only_selected="false"
       hide_knots="false" />
    <inkscape:path-effect
       effect="fillet_chamfer"
       id="path-effect5-3-6-7-4"
       is_visible="true"
       lpeversion="1"
       nodesatellites_param="F,0,0,1,0,1.7638889,0,1 @ F,0,0,1,0,1.7638889,0,1 @ F,0,0,1,0,1.7638889,0,1 @ F,0,0,1,0,1.7638889,0,1"
       radius="5"
       unit="pt"
       method="auto"
       mode="F"
       chamfer_steps="1"
       flexible="false"
       use_knot_distance="true"
       apply_no_radius="true"
       apply_with_radius="true"
       only_selected="false"
       hide_knots="false" />
    <inkscape:path-effect
       effect="fillet_chamfer"
       id="path-effect5-3-0"
       is_visible="true"
       lpeversion="1"
       nodesatellites_param="F,0,0,1,0,1.7638889,0,1 @ F,0,0,1,0,1.7638889,0,1 @ F,0,0,1,0,1.7638889,0,1 @ F,0,0,1,0,1.7638889,0,1"
       radius="5"
       unit="pt"
       method="auto"
       mode="F"
       chamfer_steps="1"
       flexible="false"
       use_knot_distance="true"
       apply_no_radius="true"
       apply_with_radius="true"
       only_selected="false"
       hide_knots="false" />
    <inkscape:path-effect
       effect="fillet_chamfer"
       id="path-effect5-3-0-4"
       is_visible="true"
       lpeversion="1"
       nodesatellites_param="F,0,0,1,0,1.7638889,0,1 @ F,0,0,1,0,1.7638889,0,1 @ F,0,0,1,0,1.7638889,0,1 @ F,0,0,1,0,1.7638889,0,1"
       radius="5"
       unit="pt"
       method="auto"
       mode="F"
       chamfer_steps="1"
       flexible="false"
       use_knot_distance="true"
       apply_no_radius="true"
       apply_with_radius="true"
       only_selected="false"
       hide_knots="false" />
    <inkscape:path-effect
       effect="fillet_chamfer"
       id="path-effect5-3-0-2"
       is_visible="true"
       lpeversion="1"
       nodesatellites_param="F,0,0,1,0,1.7638889,0,1 @ F,0,0,1,0,1.7638889,0,1 @ F,0,0,1,0,1.7638889,0,1 @ F,0,0,1,0,1.7638889,0,1"
       radius="5"
       unit="pt"
       method="auto"
       mode="F"
       chamfer_steps="1"
       flexible="false"
       use_knot_distance="true"
       apply_no_radius="true"
       apply_with_radius="true"
       only_selected="false"
       hide_knots="false" />
    <inkscape:path-effect
       effect="fillet_chamfer"
       id="path-effect5-3-0-1"
       is_visible="true"
       lpeversion="1"
       nodesatellites_param="F,0,0,1,0,1.7638889,0,1 @ F,0,0,1,0,1.7638889,0,1 @ F,0,0,1,0,1.7638889,0,1 @ F,0,0,1,0,1.7638889,0,1"
       radius="5"
       unit="pt"
       method="auto"
       mode="F"
       chamfer_steps="1"
       flexible="false"
       use_knot_distance="true"
       apply_no_radius="true"
       apply_with_radius="true"
       only_selected="false"
       hide_knots="false" />
    <inkscape:path-effect
       effect="fillet_chamfer"
       id="path-effect5-3-0-2-4"
       is_visible="true"
       lpeversion="1"
       nodesatellites_param="F,0,0,1,0,1.7638889,0,1 @ F,0,0,1,0,1.7638889,0,1 @ F,0,0,1,0,1.7638889,0,1 @ F,0,0,1,0,1.7638889,0,1"
       radius="5"
       unit="pt"
       method="auto"
       mode="F"
       chamfer_steps="1"
       flexible="false"
       use_knot_distance="true"
       apply_no_radius="true"
       apply_with_radius="true"
       only_selected="false"
       hide_knots="false" />
    <inkscape:path-effect
       effect="fillet_chamfer"
       id="path-effect5-3-0-15"
       is_visible="true"
       lpeversion="1"
       nodesatellites_param="F,0,0,1,0,1.7638889,0,1 @ F,0,0,1,0,1.7638889,0,1 @ F,0,0,1,0,1.7638889,0,1 @ F,0,0,1,0,1.7638889,0,1"
       radius="5"
       unit="pt"
       method="auto"
       mode="F"
       chamfer_steps="1"
       flexible="false"
       use_knot_distance="true"
       apply_no_radius="true"
       apply_with_radius="true"
       only_selected="false"
       hide_knots="false" />
    <inkscape:path-effect
       effect="fillet_chamfer"
       id="path-effect5-3-0-2-9"
       is_visible="true"
       lpeversion="1"
       nodesatellites_param="F,0,0,1,0,1.7638889,0,1 @ F,0,0,1,0,1.7638889,0,1 @ F,0,0,1,0,1.7638889,0,1 @ F,0,0,1,0,1.7638889,0,1"
       radius="5"
       unit="pt"
       method="auto"
       mode="F"
       chamfer_steps="1"
       flexible="false"
       use_knot_distance="true"
       apply_no_radius="true"
       apply_with_radius="true"
       only_selected="false"
       hide_knots="false" />
    <inkscape:path-effect
       effect="fillet_chamfer"
       id="path-effect5-3-0-1-7"
       is_visible="true"
       lpeversion="1"
       nodesatellites_param="F,0,0,1,0,1.7638889,0,1 @ F,0,0,1,0,1.7638889,0,1 @ F,0,0,1,0,1.7638889,0,1 @ F,0,0,1,0,1.7638889,0,1"
       radius="5"
       unit="pt"
       method="auto"
       mode="F"
       chamfer_steps="1"
       flexible="false"
       use_knot_distance="true"
       apply_no_radius="true"
       apply_with_radius="true"
       only_selected="false"
       hide_knots="false" />
    <inkscape:path-effect
       effect="fillet_chamfer"
       id="path-effect5-3-0-2-4-7"
       is_visible="true"
       lpeversion="1"
       nodesatellites_param="F,0,0,1,0,1.7638889,0,1 @ F,0,0,1,0,1.7638889,0,1 @ F,0,0,1,0,1.7638889,0,1 @ F,0,0,1,0,1.7638889,0,1"
       radius="5"
       unit="pt"
       method="auto"
       mode="F"
       chamfer_steps="1"
       flexible="false"
       use_knot_distance="true"
       apply_no_radius="true"
       apply_with_radius="true"
       only_selected="false"
       hide_knots="false" />
    <inkscape:path-effect
       effect="fillet_chamfer"
       id="path-effect5-3-0-9"
       is_visible="true"
       lpeversion="1"
       nodesatellites_param="F,0,0,1,0,1.7638889,0,1 @ F,0,0,1,0,1.7638889,0,1 @ F,0,0,1,0,1.7638889,0,1 @ F,0,0,1,0,1.7638889,0,1"
       radius="5"
       unit="pt"
       method="auto"
       mode="F"
       chamfer_steps="1"
       flexible="false"
       use_knot_distance="true"
       apply_no_radius="true"
       apply_with_radius="true"
       only_selected="false"
       hide_knots="false" />
    <inkscape:path-effect
       effect="fillet_chamfer"
       id="path-effect5-3-0-2-3"
       is_visible="true"
       lpeversion="1"
       nodesatellites_param="F,0,0,1,0,1.7638889,0,1 @ F,0,0,1,0,1.7638889,0,1 @ F,0,0,1,0,1.7638889,0,1 @ F,0,0,1,0,1.7638889,0,1"
       radius="5"
       unit="pt"
       method="auto"
       mode="F"
       chamfer_steps="1"
       flexible="false"
       use_knot_distance="true"
       apply_no_radius="true"
       apply_with_radius="true"
       only_selected="false"
       hide_knots="false" />
    <inkscape:path-effect
       effect="fillet_chamfer"
       id="path-effect5-3-0-1-9"
       is_visible="true"
       lpeversion="1"
       nodesatellites_param="F,0,0,1,0,1.7638889,0,1 @ F,0,0,1,0,1.7638889,0,1 @ F,0,0,1,0,1.7638889,0,1 @ F,0,0,1,0,1.7638889,0,1"
       radius="5"
       unit="pt"
       method="auto"
       mode="F"
       chamfer_steps="1"
       flexible="false"
       use_knot_distance="true"
       apply_no_radius="true"
       apply_with_radius="true"
       only_selected="false"
       hide_knots="false" />
    <inkscape:path-effect
       effect="fillet_chamfer"
       id="path-effect5-3-0-2-4-0"
       is_visible="true"
       lpeversion="1"
       nodesatellites_param="F,0,0,1,0,1.7638889,0,1 @ F,0,0,1,0,1.7638889,0,1 @ F,0,0,1,0,1.7638889,0,1 @ F,0,0,1,0,1.7638889,0,1"
       radius="5"
       unit="pt"
       method="auto"
       mode="F"
       chamfer_steps="1"
       flexible="false"
       use_knot_distance="true"
       apply_no_radius="true"
       apply_with_radius="true"
       only_selected="false"
       hide_knots="false" />
    <inkscape:path-effect
       effect="fillet_chamfer"
       id="path-effect5-3-0-15-8"
       is_visible="true"
       lpeversion="1"
       nodesatellites_param="F,0,0,1,0,1.7638889,0,1 @ F,0,0,1,0,1.7638889,0,1 @ F,0,0,1,0,1.7638889,0,1 @ F,0,0,1,0,1.7638889,0,1"
       radius="5"
       unit="pt"
       method="auto"
       mode="F"
       chamfer_steps="1"
       flexible="false"
       use_knot_distance="true"
       apply_no_radius="true"
       apply_with_radius="true"
       only_selected="false"
       hide_knots="false" />
    <inkscape:path-effect
       effect="fillet_chamfer"
       id="path-effect5-3-0-2-9-8"
       is_visible="true"
       lpeversion="1"
       nodesatellites_param="F,0,0,1,0,1.7638889,0,1 @ F,0,0,1,0,1.7638889,0,1 @ F,0,0,1,0,1.7638889,0,1 @ F,0,0,1,0,1.7638889,0,1"
       radius="5"
       unit="pt"
       method="auto"
       mode="F"
       chamfer_steps="1"
       flexible="false"
       use_knot_distance="true"
       apply_no_radius="true"
       apply_with_radius="true"
       only_selected="false"
       hide_knots="false" />
    <inkscape:path-effect
       effect="fillet_chamfer"
       id="path-effect5-3-0-1-7-5"
       is_visible="true"
       lpeversion="1"
       nodesatellites_param="F,0,0,1,0,1.7638889,0,1 @ F,0,0,1,0,1.7638889,0,1 @ F,0,0,1,0,1.7638889,0,1 @ F,0,0,1,0,1.7638889,0,1"
       radius="5"
       unit="pt"
       method="auto"
       mode="F"
       chamfer_steps="1"
       flexible="false"
       use_knot_distance="true"
       apply_no_radius="true"
       apply_with_radius="true"
       only_selected="false"
       hide_knots="false" />
    <inkscape:path-effect
       effect="fillet_chamfer"
       id="path-effect5-3-0-2-4-7-0"
       is_visible="true"
       lpeversion="1"
       nodesatellites_param="F,0,0,1,0,1.7638889,0,1 @ F,0,0,1,0,1.7638889,0,1 @ F,0,0,1,0,1.7638889,0,1 @ F,0,0,1,0,1.7638889,0,1"
       radius="5"
       unit="pt"
       method="auto"
       mode="F"
       chamfer_steps="1"
       flexible="false"
       use_knot_distance="true"
       apply_no_radius="true"
       apply_with_radius="true"
       only_selected="false"
       hide_knots="false" />
    <inkscape:path-effect
       effect="fillet_chamfer"
       id="path-effect5-9"
       is_visible="true"
       lpeversion="1"
       nodesatellites_param="F,0,0,1,0,1.7638889,0,1 @ F,0,0,1,0,1.7638889,0,1 @ F,0,0,1,0,1.7638889,0,1 @ F,0,0,1,0,1.7638889,0,1"
       radius="5"
       unit="pt"
       method="auto"
       mode="F"
       chamfer_steps="1"
       flexible="false"
       use_knot_distance="true"
       apply_no_radius="true"
       apply_with_radius="true"
       only_selected="false"
       hide_knots="false" />
    <inkscape:path-effect
       effect="fillet_chamfer"
       id="path-effect5-9-2"
       is_visible="true"
       lpeversion="1"
       nodesatellites_param="F,0,0,1,0,1.7638889,0,1 @ F,0,0,1,0,1.7638889,0,1 @ F,0,0,1,0,1.7638889,0,1 @ F,0,0,1,0,1.7638889,0,1"
       radius="5"
       unit="pt"
       method="auto"
       mode="F"
       chamfer_steps="1"
       flexible="false"
       use_knot_distance="true"
       apply_no_radius="true"
       apply_with_radius="true"
       only_selected="false"
       hide_knots="false" />
  </defs>
  <g
     inkscape:label="Layer 1"
     inkscape:groupmode="layer"
     id="layer1">
    <circle
       style="fill:#000000;fill-opacity:1;stroke:#000000;stroke-width:0.474803;stroke-dasharray:none;stroke-opacity:1"
       id="path1-9"
       cx="4.5862226"
       cy="139.72627"
       r="2.8488209" />
    <ellipse
       style="fill:none;stroke:#000000;stroke-width:0.474839;stroke-dasharray:none;stroke-opacity:1"
       id="path1"
       cx="12.689865"
       cy="139.7263"
       rx="2.8490369"
       ry="2.8490372" />
    <ellipse
       style="fill:none;stroke:#000000;stroke-width:0.474839;stroke-dasharray:none;stroke-opacity:1"
       id="path1-5"
       cx="20.273956"
       cy="139.7263"
       rx="2.8490372"
       ry="2.8490369" />
    <ellipse
       style="fill:none;stroke:#000000;stroke-width:0.474839;stroke-dasharray:none;stroke-opacity:1"
       id="path1-5-7"
       cx="28.023956"
       cy="139.7263"
       rx="2.8490369"
       ry="2.8490372" />
    <ellipse
       style="fill:none;stroke:#000000;stroke-width:0.474839;stroke-dasharray:none;stroke-opacity:1"
       id="path1-5-7-6"
       cx="39.523956"
       cy="139.7263"
       rx="2.8490369"
       ry="2.8490372" />
    <rect
       style="fill:#000000;stroke-width:0.25"
       id="rect5"
       width="192"
       height="1.25"
       x="0"
       y="134.25" />
    <path
       style="fill:#000000;stroke-width:0.142637"
       id="rect5-9"
       width="25"
       height="3.125"
       x="148.5"
       y="3.125"
       inkscape:path-effect="#path-effect5"
       sodipodi:type="rect"
       d="m 150.26389,3.125 21.47222,0 A 1.7638889,1.7638889 45 0 1 173.5,4.8888889 1.5754249,1.5754249 142.3443 0 1 171.73611,6.25 l -21.47222,0 A 1.7638889,1.7638889 45 0 1 148.5,4.4861111 1.5754249,1.5754249 142.3443 0 1 150.26389,3.125 Z"
       transform="matrix(1.6146491,0,0,1,-91.358069,135.0388)" />
    <path
       style="fill:#000000;stroke-width:0.142637"
       id="rect5-9-6"
       width="25"
       height="3.125"
       x="148.5"
       y="3.125"
       inkscape:path-effect="#path-effect5-9"
       sodipodi:type="rect"
       d="m 150.26389,3.125 21.47222,0 A 1.7638889,1.7638889 45 0 1 173.5,4.8888889 1.5754249,1.5754249 142.3443 0 1 171.73611,6.25 l -21.47222,0 A 1.7638889,1.7638889 45 0 1 148.5,4.4861111 1.5754249,1.5754249 142.3443 0 1 150.26389,3.125 Z"
       transform="matrix(0.96106574,0,0,0.85943751,-97.237392,135.69769)" />
    <ellipse
       style="fill:none;stroke:#000000;stroke-width:0.474839;stroke-dasharray:none;stroke-opacity:1"
       id="path1-5-7-6-0"
       cx="77.357285"
       cy="139.7263"
       rx="2.8490369"
       ry="2.8490372" />
    <path
       style="fill:#000000;stroke-width:0.142637"
       id="rect5-9-6-5"
       width="25"
       height="3.125"
       x="148.5"
       y="3.125"
       inkscape:path-effect="#path-effect5-9-2"
       sodipodi:type="rect"
       d="m 150.26389,3.125 21.47222,0 A 1.7638889,1.7638889 45 0 1 173.5,4.8888889 1.5754249,1.5754249 142.3443 0 1 171.73611,6.25 l -21.47222,0 A 1.7638889,1.7638889 45 0 1 148.5,4.4861111 1.5754249,1.5754249 142.3443 0 1 150.26389,3.125 Z"
       transform="matrix(0.96106574,0,0,0.85943751,-59.404058,135.69769)" />
    <path
       style="fill:#000000;stroke-width:0.142637"
       id="rect5-9-0"
       width="25"
       height="3.125"
       x="148.5"
       y="3.125"
       inkscape:path-effect="#path-effect5-3"
       sodipodi:type="rect"
       d="m 150.26389,3.125 21.47222,0 A 1.7638889,1.7638889 45 0 1 173.5,4.8888889 1.5754249,1.5754249 142.3443 0 1 171.73611,6.25 l -21.47222,0 A 1.7638889,1.7638889 45 0 1 148.5,4.4861111 1.5754249,1.5754249 142.3443 0 1 150.26389,3.125 Z"
       transform="matrix(0.727903,0,0,0.59223478,-58.706798,49.567111)" />
    <path
       style="fill:#000000;stroke-width:0.142637"
       id="rect5-9-0-1"
       width="25"
       height="3.125"
       x="148.5"
       y="3.125"
       inkscape:path-effect="#path-effect5-3-0"
       sodipodi:type="rect"
       d="m 150.26389,3.125 21.47222,0 A 1.7638889,1.7638889 45 0 1 173.5,4.8888889 1.5754249,1.5754249 142.3443 0 1 171.73611,6.25 l -21.47222,0 A 1.7638889,1.7638889 45 0 1 148.5,4.4861111 1.5754249,1.5754249 142.3443 0 1 150.26389,3.125 Z"
       transform="matrix(1.1303525,0,0,0.33429629,-156.08213,51.801648)" />
    <circle
       style="fill:none;stroke:#000000;stroke-width:0.265957;stroke-dasharray:none;stroke-opacity:1"
       id="path1-6-6"
       cx="7.744451"
       cy="53.368759"
       r="1.5957404" />
    <path
       style="fill:#000000;stroke-width:0.142637"
       id="rect5-9-0-1-4"
       width="25"
       height="3.125"
       x="148.5"
       y="3.125"
       inkscape:path-effect="#path-effect5-3-0-2"
       sodipodi:type="rect"
       d="m 150.26389,3.125 21.47222,0 A 1.7638889,1.7638889 45 0 1 173.5,4.8888889 1.5754249,1.5754249 142.3443 0 1 171.73611,6.25 l -21.47222,0 A 1.7638889,1.7638889 45 0 1 148.5,4.4861111 1.5754249,1.5754249 142.3443 0 1 150.26389,3.125 Z"
       transform="matrix(0.90657042,0,0,0.33429629,-122.85016,56.661608)" />
    <circle
       style="fill:none;stroke:#000000;stroke-width:0.265957;stroke-dasharray:none;stroke-opacity:1"
       id="path1-6-6-7"
       cx="7.744782"
       cy="58.228718"
       r="1.5957404" />
    <path
       style="fill:#000000;stroke-width:0.142637"
       id="rect5-9-0-1-2"
       width="25"
       height="3.125"
       x="148.5"
       y="3.125"
       inkscape:path-effect="#path-effect5-3-0-1"
       sodipodi:type="rect"
       d="m 150.26389,3.125 21.47222,0 A 1.7638889,1.7638889 45 0 1 173.5,4.8888889 1.5754249,1.5754249 142.3443 0 1 171.73611,6.25 l -21.47222,0 A 1.7638889,1.7638889 45 0 1 148.5,4.4861111 1.5754249,1.5754249 142.3443 0 1 150.26389,3.125 Z"
       transform="matrix(1.1303525,0,0,0.33429629,-156.0818,61.661608)" />
    <circle
       style="fill:none;stroke:#000000;stroke-width:0.265957;stroke-dasharray:none;stroke-opacity:1"
       id="path1-6-6-0"
       cx="7.744782"
       cy="63.228718"
       r="1.5957404" />
    <path
       style="fill:#000000;stroke-width:0.142637"
       id="rect5-9-0-1-4-6"
       width="25"
       height="3.125"
       x="148.5"
       y="3.125"
       inkscape:path-effect="#path-effect5-3-0-2-4"
       sodipodi:type="rect"
       d="m 150.26389,3.125 21.47222,0 A 1.7638889,1.7638889 45 0 1 173.5,4.8888889 1.5754249,1.5754249 142.3443 0 1 171.73611,6.25 l -21.47222,0 A 1.7638889,1.7638889 45 0 1 148.5,4.4861111 1.5754249,1.5754249 142.3443 0 1 150.26389,3.125 Z"
       transform="matrix(0.90657042,0,0,0.33429629,-122.84983,66.521568)" />
    <circle
       style="fill:none;stroke:#000000;stroke-width:0.265957;stroke-dasharray:none;stroke-opacity:1"
       id="path1-6-6-7-8"
       cx="7.7451129"
       cy="68.088676"
       r="1.5957404" />
    <path
       style="fill:#000000;stroke-width:0.142637"
       id="rect5-9-0-8"
       width="25"
       height="3.125"
       x="148.5"
       y="3.125"
       inkscape:path-effect="#path-effect5-3-6"
       sodipodi:type="rect"
       d="m 150.26389,3.125 21.47222,0 A 1.7638889,1.7638889 45 0 1 173.5,4.8888889 1.5754249,1.5754249 142.3443 0 1 171.73611,6.25 l -21.47222,0 A 1.7638889,1.7638889 45 0 1 148.5,4.4861111 1.5754249,1.5754249 142.3443 0 1 150.26389,3.125 Z"
       transform="matrix(0.58745322,0,0,0.59223478,-37.849717,53.372413)" />
    <path
       style="fill:#000000;stroke-width:0.142637"
       id="rect5-9-0-6"
       width="25"
       height="3.125"
       x="148.5"
       y="3.125"
       inkscape:path-effect="#path-effect5-3-9"
       sodipodi:type="rect"
       d="m 150.26389,3.125 21.47222,0 A 1.7638889,1.7638889 45 0 1 173.5,4.8888889 1.5754249,1.5754249 142.3443 0 1 171.73611,6.25 l -21.47222,0 A 1.7638889,1.7638889 45 0 1 148.5,4.4861111 1.5754249,1.5754249 142.3443 0 1 150.26389,3.125 Z"
       transform="matrix(0.727903,0,0,0.59223478,-58.692779,57.37159)" />
    <path
       style="fill:#000000;stroke-width:0.142637"
       id="rect5-9-0-8-1"
       width="25"
       height="3.125"
       x="148.5"
       y="3.125"
       inkscape:path-effect="#path-effect5-3-6-7"
       sodipodi:type="rect"
       d="m 150.26389,3.125 21.47222,0 A 1.7638889,1.7638889 45 0 1 173.5,4.8888889 1.5754249,1.5754249 142.3443 0 1 171.73611,6.25 l -21.47222,0 A 1.7638889,1.7638889 45 0 1 148.5,4.4861111 1.5754249,1.5754249 142.3443 0 1 150.26389,3.125 Z"
       transform="matrix(0.58745322,0,0,0.59223478,-37.835698,61.176892)" />
    <path
       style="fill:#000000;stroke-width:0.142637"
       id="rect5-9-0-84"
       width="25"
       height="3.125"
       x="148.5"
       y="3.125"
       inkscape:path-effect="#path-effect5-3-3"
       sodipodi:type="rect"
       d="m 150.26389,3.125 21.47222,0 A 1.7638889,1.7638889 45 0 1 173.5,4.8888889 1.5754249,1.5754249 142.3443 0 1 171.73611,6.25 l -21.47222,0 A 1.7638889,1.7638889 45 0 1 148.5,4.4861111 1.5754249,1.5754249 142.3443 0 1 150.26389,3.125 Z"
       transform="matrix(0.727903,0,0,0.59223478,-58.567757,66.116544)" />
    <path
       style="fill:#000000;stroke-width:0.142637"
       id="rect5-9-0-8-5"
       width="25"
       height="3.125"
       x="148.5"
       y="3.125"
       inkscape:path-effect="#path-effect5-3-6-1"
       sodipodi:type="rect"
       d="m 150.26389,3.125 21.47222,0 A 1.7638889,1.7638889 45 0 1 173.5,4.8888889 1.5754249,1.5754249 142.3443 0 1 171.73611,6.25 l -21.47222,0 A 1.7638889,1.7638889 45 0 1 148.5,4.4861111 1.5754249,1.5754249 142.3443 0 1 150.26389,3.125 Z"
       transform="matrix(0.58745322,0,0,0.59223478,-37.710676,69.921846)" />
    <path
       style="fill:#000000;stroke-width:0.142637"
       id="rect5-9-0-6-0"
       width="25"
       height="3.125"
       x="148.5"
       y="3.125"
       inkscape:path-effect="#path-effect5-3-9-9"
       sodipodi:type="rect"
       d="m 150.26389,3.125 21.47222,0 A 1.7638889,1.7638889 45 0 1 173.5,4.8888889 1.5754249,1.5754249 142.3443 0 1 171.73611,6.25 l -21.47222,0 A 1.7638889,1.7638889 45 0 1 148.5,4.4861111 1.5754249,1.5754249 142.3443 0 1 150.26389,3.125 Z"
       transform="matrix(0.727903,0,0,0.59223478,-58.553738,73.921023)" />
    <path
       style="fill:#000000;stroke-width:0.142637"
       id="rect5-9-0-8-1-3"
       width="25"
       height="3.125"
       x="148.5"
       y="3.125"
       inkscape:path-effect="#path-effect5-3-6-7-4"
       sodipodi:type="rect"
       d="m 150.26389,3.125 21.47222,0 A 1.7638889,1.7638889 45 0 1 173.5,4.8888889 1.5754249,1.5754249 142.3443 0 1 171.73611,6.25 l -21.47222,0 A 1.7638889,1.7638889 45 0 1 148.5,4.4861111 1.5754249,1.5754249 142.3443 0 1 150.26389,3.125 Z"
       transform="matrix(0.58745322,0,0,0.59223478,-37.696657,77.726325)" />
    <rect
       style="fill:none;stroke:#000000;stroke-width:1.53186;stroke-dasharray:none;stroke-opacity:1;paint-order:normal"
       id="rect1"
       width="68.62928"
       height="84.57515"
       x="2.051852"
       y="48.057812" />
    <rect
       style="fill:none;stroke:#000000;stroke-width:0.914532;stroke-dasharray:none;stroke-opacity:1;paint-order:normal"
       id="rect1-7"
       width="24.283459"
       height="85.192482"
       x="46.706402"
       y="47.74939" />
    <path
       style="fill:#000000;stroke-width:0.142637"
       id="rect5-9-0-1-7"
       width="25"
       height="3.125"
       x="148.5"
       y="3.125"
       inkscape:path-effect="#path-effect5-3-0-15"
       sodipodi:type="rect"
       d="m 150.26389,3.125 21.47222,0 A 1.7638889,1.7638889 45 0 1 173.5,4.8888889 1.5754249,1.5754249 142.3443 0 1 171.73611,6.25 l -21.47222,0 A 1.7638889,1.7638889 45 0 1 148.5,4.4861111 1.5754249,1.5754249 142.3443 0 1 150.26389,3.125 Z"
       transform="matrix(1.1303525,0,0,0.33429629,-156.0818,71.661608)" />
    <circle
       style="fill:none;stroke:#000000;stroke-width:0.265957;stroke-dasharray:none;stroke-opacity:1"
       id="path1-6-6-3"
       cx="7.744782"
       cy="73.228722"
       r="1.5957404" />
    <path
       style="fill:#000000;stroke-width:0.142637"
       id="rect5-9-0-1-4-65"
       width="25"
       height="3.125"
       x="148.5"
       y="3.125"
       inkscape:path-effect="#path-effect5-3-0-2-9"
       sodipodi:type="rect"
       d="m 150.26389,3.125 21.47222,0 A 1.7638889,1.7638889 45 0 1 173.5,4.8888889 1.5754249,1.5754249 142.3443 0 1 171.73611,6.25 l -21.47222,0 A 1.7638889,1.7638889 45 0 1 148.5,4.4861111 1.5754249,1.5754249 142.3443 0 1 150.26389,3.125 Z"
       transform="matrix(0.90657042,0,0,0.33429629,-122.84983,76.521568)" />
    <circle
       style="fill:none;stroke:#000000;stroke-width:0.265957;stroke-dasharray:none;stroke-opacity:1"
       id="path1-6-6-7-6"
       cx="7.7451129"
       cy="78.088676"
       r="1.5957404" />
    <path
       style="fill:#000000;stroke-width:0.142637"
       id="rect5-9-0-1-2-3"
       width="25"
       height="3.125"
       x="148.5"
       y="3.125"
       inkscape:path-effect="#path-effect5-3-0-1-7"
       sodipodi:type="rect"
       d="m 150.26389,3.125 21.47222,0 A 1.7638889,1.7638889 45 0 1 173.5,4.8888889 1.5754249,1.5754249 142.3443 0 1 171.73611,6.25 l -21.47222,0 A 1.7638889,1.7638889 45 0 1 148.5,4.4861111 1.5754249,1.5754249 142.3443 0 1 150.26389,3.125 Z"
       transform="matrix(1.1303525,0,0,0.33429629,-156.08147,81.521568)" />
    <circle
       style="fill:none;stroke:#000000;stroke-width:0.265957;stroke-dasharray:none;stroke-opacity:1"
       id="path1-6-6-0-9"
       cx="7.7451129"
       cy="83.088676"
       r="1.5957404" />
    <path
       style="fill:#000000;stroke-width:0.142637"
       id="rect5-9-0-1-4-6-4"
       width="25"
       height="3.125"
       x="148.5"
       y="3.125"
       inkscape:path-effect="#path-effect5-3-0-2-4-7"
       sodipodi:type="rect"
       d="m 150.26389,3.125 21.47222,0 A 1.7638889,1.7638889 45 0 1 173.5,4.8888889 1.5754249,1.5754249 142.3443 0 1 171.73611,6.25 l -21.47222,0 A 1.7638889,1.7638889 45 0 1 148.5,4.4861111 1.5754249,1.5754249 142.3443 0 1 150.26389,3.125 Z"
       transform="matrix(0.90657042,0,0,0.33429629,-122.8495,86.381528)" />
    <circle
       style="fill:none;stroke:#000000;stroke-width:0.265957;stroke-dasharray:none;stroke-opacity:1"
       id="path1-6-6-7-8-8"
       cx="7.7454438"
       cy="87.948639"
       r="1.5957404" />
    <path
       style="fill:#000000;stroke-width:0.142637"
       id="rect5-9-0-1-6"
       width="25"
       height="3.125"
       x="148.5"
       y="3.125"
       inkscape:path-effect="#path-effect5-3-0-9"
       sodipodi:type="rect"
       d="m 150.26389,3.125 21.47222,0 A 1.7638889,1.7638889 45 0 1 173.5,4.8888889 1.5754249,1.5754249 142.3443 0 1 171.73611,6.25 l -21.47222,0 A 1.7638889,1.7638889 45 0 1 148.5,4.4861111 1.5754249,1.5754249 142.3443 0 1 150.26389,3.125 Z"
       transform="matrix(1.1303525,0,0,0.33429629,-156.0818,91.661608)" />
    <circle
       style="fill:none;stroke:#000000;stroke-width:0.265957;stroke-dasharray:none;stroke-opacity:1"
       id="path1-6-6-38"
       cx="7.744782"
       cy="93.228722"
       r="1.5957404" />
    <path
       style="fill:#000000;stroke-width:0.142637"
       id="rect5-9-0-1-4-5"
       width="25"
       height="3.125"
       x="148.5"
       y="3.125"
       inkscape:path-effect="#path-effect5-3-0-2-3"
       sodipodi:type="rect"
       d="m 150.26389,3.125 21.47222,0 A 1.7638889,1.7638889 45 0 1 173.5,4.8888889 1.5754249,1.5754249 142.3443 0 1 171.73611,6.25 l -21.47222,0 A 1.7638889,1.7638889 45 0 1 148.5,4.4861111 1.5754249,1.5754249 142.3443 0 1 150.26389,3.125 Z"
       transform="matrix(0.90657042,0,0,0.33429629,-122.84983,96.52157)" />
    <circle
       style="fill:none;stroke:#000000;stroke-width:0.265957;stroke-dasharray:none;stroke-opacity:1"
       id="path1-6-6-7-61"
       cx="7.7451129"
       cy="98.088676"
       r="1.5957404" />
    <path
       style="fill:#000000;stroke-width:0.142637"
       id="rect5-9-0-1-2-1"
       width="25"
       height="3.125"
       x="148.5"
       y="3.125"
       inkscape:path-effect="#path-effect5-3-0-1-9"
       sodipodi:type="rect"
       d="m 150.26389,3.125 21.47222,0 A 1.7638889,1.7638889 45 0 1 173.5,4.8888889 1.5754249,1.5754249 142.3443 0 1 171.73611,6.25 l -21.47222,0 A 1.7638889,1.7638889 45 0 1 148.5,4.4861111 1.5754249,1.5754249 142.3443 0 1 150.26389,3.125 Z"
       transform="matrix(1.1303525,0,0,0.33429629,-156.08147,101.52157)" />
    <circle
       style="fill:none;stroke:#000000;stroke-width:0.265957;stroke-dasharray:none;stroke-opacity:1"
       id="path1-6-6-0-5"
       cx="7.7451129"
       cy="103.08868"
       r="1.5957404" />
    <path
       style="fill:#000000;stroke-width:0.142637"
       id="rect5-9-0-1-4-6-9"
       width="25"
       height="3.125"
       x="148.5"
       y="3.125"
       inkscape:path-effect="#path-effect5-3-0-2-4-0"
       sodipodi:type="rect"
       d="m 150.26389,3.125 21.47222,0 A 1.7638889,1.7638889 45 0 1 173.5,4.8888889 1.5754249,1.5754249 142.3443 0 1 171.73611,6.25 l -21.47222,0 A 1.7638889,1.7638889 45 0 1 148.5,4.4861111 1.5754249,1.5754249 142.3443 0 1 150.26389,3.125 Z"
       transform="matrix(0.90657042,0,0,0.33429629,-122.8495,106.38153)" />
    <circle
       style="fill:none;stroke:#000000;stroke-width:0.265957;stroke-dasharray:none;stroke-opacity:1"
       id="path1-6-6-7-8-84"
       cx="7.7454438"
       cy="107.94864"
       r="1.5957404" />
    <path
       style="fill:#000000;stroke-width:0.142637"
       id="rect5-9-0-1-7-8"
       width="25"
       height="3.125"
       x="148.5"
       y="3.125"
       inkscape:path-effect="#path-effect5-3-0-15-8"
       sodipodi:type="rect"
       d="m 150.26389,3.125 21.47222,0 A 1.7638889,1.7638889 45 0 1 173.5,4.8888889 1.5754249,1.5754249 142.3443 0 1 171.73611,6.25 l -21.47222,0 A 1.7638889,1.7638889 45 0 1 148.5,4.4861111 1.5754249,1.5754249 142.3443 0 1 150.26389,3.125 Z"
       transform="matrix(1.1303525,0,0,0.33429629,-156.08147,111.52157)" />
    <circle
       style="fill:none;stroke:#000000;stroke-width:0.265957;stroke-dasharray:none;stroke-opacity:1"
       id="path1-6-6-3-1"
       cx="7.7451129"
       cy="113.08868"
       r="1.5957404" />
    <path
       style="fill:#000000;stroke-width:0.142637"
       id="rect5-9-0-1-4-65-0"
       width="25"
       height="3.125"
       x="148.5"
       y="3.125"
       inkscape:path-effect="#path-effect5-3-0-2-9-8"
       sodipodi:type="rect"
       d="m 150.26389,3.125 21.47222,0 A 1.7638889,1.7638889 45 0 1 173.5,4.8888889 1.5754249,1.5754249 142.3443 0 1 171.73611,6.25 l -21.47222,0 A 1.7638889,1.7638889 45 0 1 148.5,4.4861111 1.5754249,1.5754249 142.3443 0 1 150.26389,3.125 Z"
       transform="matrix(0.90657042,0,0,0.33429629,-122.8495,116.38153)" />
    <circle
       style="fill:none;stroke:#000000;stroke-width:0.265957;stroke-dasharray:none;stroke-opacity:1"
       id="path1-6-6-7-6-3"
       cx="7.7454438"
       cy="117.94864"
       r="1.5957404" />
    <path
       style="fill:#000000;stroke-width:0.142637"
       id="rect5-9-0-1-2-3-0"
       width="25"
       height="3.125"
       x="148.5"
       y="3.125"
       inkscape:path-effect="#path-effect5-3-0-1-7-5"
       sodipodi:type="rect"
       d="m 150.26389,3.125 21.47222,0 A 1.7638889,1.7638889 45 0 1 173.5,4.8888889 1.5754249,1.5754249 142.3443 0 1 171.73611,6.25 l -21.47222,0 A 1.7638889,1.7638889 45 0 1 148.5,4.4861111 1.5754249,1.5754249 142.3443 0 1 150.26389,3.125 Z"
       transform="matrix(1.1303525,0,0,0.33429629,-156.08114,121.38153)" />
    <circle
       style="fill:none;stroke:#000000;stroke-width:0.265957;stroke-dasharray:none;stroke-opacity:1"
       id="path1-6-6-0-9-4"
       cx="7.7454438"
       cy="122.94864"
       r="1.5957404" />
    <path
       style="fill:#000000;stroke-width:0.142637"
       id="rect5-9-0-1-4-6-4-4"
       width="25"
       height="3.125"
       x="148.5"
       y="3.125"
       inkscape:path-effect="#path-effect5-3-0-2-4-7-0"
       sodipodi:type="rect"
       d="m 150.26389,3.125 21.47222,0 A 1.7638889,1.7638889 45 0 1 173.5,4.8888889 1.5754249,1.5754249 142.3443 0 1 171.73611,6.25 l -21.47222,0 A 1.7638889,1.7638889 45 0 1 148.5,4.4861111 1.5754249,1.5754249 142.3443 0 1 150.26389,3.125 Z"
       transform="matrix(0.90657042,0,0,0.33429629,-122.84917,126.24149)" />
    <circle
       style="fill:none;stroke:#000000;stroke-width:0.265957;stroke-dasharray:none;stroke-opacity:1"
       id="path1-6-6-7-8-8-4"
       cx="7.7457747"
       cy="127.80859"
       r="1.5957404" />
  </g>
</svg>
